<svg width="60" height="40" viewBox="0 0 60 40" fill="none" xmlns="http://www.w3.org/2000/svg">
    <defs>
        <filter id="glow" x="-50%" y="-50%" width="200%" height="200%">
            <feGaussianBlur in="SourceAlpha" stdDeviation="2"/>
            <feMerge>
                <feMergeNode/>
                <feMergeNode in="SourceGraphic"/>
            </feMerge>
        </filter>
        <linearGradient id="1" x1="4.85111" y1="4.83668" x2="32.8644" y2="32.8231" gradientUnits="userSpaceOnUse">
            <stop offset="0.25601" stop-color="#ffeb8c" />
            <stop offset="0.72287" stop-color="#af794f" />
        </linearGradient>
        <linearGradient id="2" x1="24.85111" y1="24.83668" x2="70.8644" y2="45.8231" gradientUnits="userSpaceOnUse">
            <stop offset="0.25601" stop-color="#335BE9" />
            <stop offset="0.72287" stop-color="#05154D" />
        </linearGradient>
    </defs>
<path d="M8.03125 38C7.73789 38 7.5 37.7761 7.5 37.5V2.5C7.5 2.22386 7.73789 2 8.03125 2H23.9688C24.2621 2 24.5 2.22386 24.5 2.5V5.5C24.5 5.77614 24.2621 6 23.9688 6H13.4952C13.2018 6 12.9639 6.22386 12.9639 6.5V16.5C12.9639 16.7761 13.2018 17 13.4952 17H23.9688C24.2621 17 24.5 17.2239 24.5 17.5V20.5C24.5 20.7761 24.2621 21 23.9688 21H13.4952C13.2018 21 12.9639 21.2239 12.9639 21.5V37.5C12.9639 37.7761 12.7261 38 12.4327 38H8.03125Z"
      fill="url(#1)" filter="url(#glow)"/>

<path d="M30.5219 38C30.2337 38 30 37.7761 30 37.5V2.5C30 2.22386 30.2337 2 30.5219 2H34.9123C35.2229 2 35.4035 2.23089 35.4035 2.5C35.4035 2.54655 35.4024 2.6967 35.4007 2.91321C35.7516 3.92059 36.5564 6.24095 36.5564 6.24095L44.1699 27.5323C47.0824 19.0075 51.7343 5.39237 52.5965 2.87532V2.5C52.5965 2.22386 52.8302 2 53.1184 2H57.5088C57.8193 2 58 2.23089 58 2.5C58 2.76911 57.9645 6.5 57.9645 6.5V37.5C57.9645 37.7761 57.7309 38 57.4426 38H53.1184C52.8302 38 52.5965 37.7761 52.5965 37.5V18.2747C49.4162 26.7862 45.9545 36.0492 45.9545 36.0492C45.8617 36.3087 45.2175 36.5942 44.9467 36.4939H43.0179C42.7471 36.5942 42.1028 36.3087 42.0101 36.0492C42.0101 36.0492 38.5483 26.7862 35.368 18.2747V37.5C35.368 37.7761 35.1344 38 34.8461 38H30.5219Z"
      fill="url(#2)" filter="url(#glow)"/>


</svg>
